<svg width="60" height="60" viewBox="0 0 60 60" fill="none" xmlns="http://www.w3.org/2000/svg">
<g filter="url(#filter0_dd_7544_691)">
<g clip-path="url(#clip0_7544_691)">
<path d="M18.3445 37.0668L16 12.047L44 12.0973L41.5209 37.0668L30.1057 39.9531L18.3445 37.0668Z" fill="#1B73BA"/>
<path d="M30.1057 37.5367V14.4298L41.6363 14.4633L39.5801 35.137L30.1057 37.5367Z" fill="#1C88C7"/>
<path d="M38.7727 17.3833H21.0349L21.5154 20.4036H29.9326L21.65 23.5081L22.1303 26.4279H34.3336L33.8914 30.5054L29.7596 31.2103L26.0124 30.3714L25.724 28.0556H22.2841L22.7452 32.8717L30.1248 34.6672L37.197 32.7039L38.1002 23.2899H30.6242L38.7725 20.3366L38.7727 17.3833Z" fill="white"/>
</g>
<rect x="5.5" y="1.5" width="49" height="49" rx="24.5" stroke="#17171A" stroke-opacity="0.05"/>
</g>
<defs>
<filter id="filter0_dd_7544_691" x="0" y="0" width="60" height="60" filterUnits="userSpaceOnUse" color-interpolation-filters="sRGB">
<feFlood flood-opacity="0" result="BackgroundImageFix"/>
<feColorMatrix in="SourceAlpha" type="matrix" values="0 0 0 0 0 0 0 0 0 0 0 0 0 0 0 0 0 0 127 0" result="hardAlpha"/>
<feMorphology radius="2" operator="erode" in="SourceAlpha" result="effect1_dropShadow_7544_691"/>
<feOffset dy="2"/>
<feGaussianBlur stdDeviation="2"/>
<feComposite in2="hardAlpha" operator="out"/>
<feColorMatrix type="matrix" values="0 0 0 0 0.152941 0 0 0 0 0.152941 0 0 0 0 0.160784 0 0 0 0.01 0"/>
<feBlend mode="normal" in2="BackgroundImageFix" result="effect1_dropShadow_7544_691"/>
<feColorMatrix in="SourceAlpha" type="matrix" values="0 0 0 0 0 0 0 0 0 0 0 0 0 0 0 0 0 0 127 0" result="hardAlpha"/>
<feMorphology radius="1" operator="erode" in="SourceAlpha" result="effect2_dropShadow_7544_691"/>
<feOffset dy="4"/>
<feGaussianBlur stdDeviation="3"/>
<feComposite in2="hardAlpha" operator="out"/>
<feColorMatrix type="matrix" values="0 0 0 0 0.152941 0 0 0 0 0.152941 0 0 0 0 0.160784 0 0 0 0.01 0"/>
<feBlend mode="normal" in2="effect1_dropShadow_7544_691" result="effect2_dropShadow_7544_691"/>
<feBlend mode="normal" in="SourceGraphic" in2="effect2_dropShadow_7544_691" result="shape"/>
</filter>
<clipPath id="clip0_7544_691">
<rect width="28" height="28" fill="white" transform="translate(16 12)"/>
</clipPath>
</defs>
</svg>
