<svg width="60" height="60" viewBox="0 0 60 60" fill="none" xmlns="http://www.w3.org/2000/svg">
<g filter="url(#filter0_dd_7544_707)">
<g clip-path="url(#clip0_7544_707)">
<path d="M16 12H44V40H16V12Z" fill="#F0DB4F"/>
<path d="M41.7084 33.3221C41.5035 32.0445 40.6704 30.9719 38.2031 29.9711C37.3461 29.5772 36.3906 29.2951 36.1058 28.6457C36.0046 28.2677 35.9913 28.0548 36.0552 27.8259C36.2388 27.0833 37.1252 26.8517 37.8278 27.0647C38.2803 27.2164 38.7088 27.5651 38.967 28.1213C40.1753 27.3388 40.1727 27.3441 41.0164 26.8065C40.7077 26.3274 40.5426 26.1065 40.3404 25.9016C39.6137 25.0898 38.6236 24.6719 37.04 24.7039C36.7658 24.7385 36.4891 24.7757 36.2149 24.8103C35.4244 25.0099 34.6712 25.4251 34.2293 25.9814C32.9039 27.4852 33.2818 30.1175 34.8947 31.2008C36.4837 32.3932 38.8179 32.6647 39.116 33.7799C39.4061 35.1453 38.1126 35.5871 36.8271 35.4301C35.8795 35.2331 35.3526 34.7514 34.7829 33.8757C33.7343 34.4826 33.7343 34.4826 32.6564 35.1027C32.9119 35.6616 33.1807 35.9145 33.6092 36.3989C35.6373 38.4563 40.713 38.3552 41.6233 35.2411C41.6605 35.1346 41.9054 34.4213 41.7084 33.3221ZM31.2217 24.8688H28.6027C28.6027 27.1312 28.5921 29.3776 28.5921 31.6399C28.5921 33.0799 28.6666 34.4 28.4324 34.8046C28.0491 35.6004 27.0564 35.5019 26.6039 35.3475C26.1434 35.1213 25.9092 34.7992 25.6377 34.3441C25.5632 34.2137 25.5073 34.1126 25.4887 34.1046C24.778 34.5384 24.07 34.9749 23.3594 35.4088C23.7134 36.1354 24.235 36.7662 24.9031 37.176C25.9012 37.7749 27.2426 37.9586 28.6453 37.6365C29.5583 37.3703 30.3461 36.8194 30.7586 35.981C31.3548 34.8818 31.2271 33.551 31.2217 32.0791C31.235 29.6784 31.2217 27.2776 31.2217 24.8688Z" fill="#323330"/>
</g>
<rect x="5.5" y="1.5" width="49" height="49" rx="24.5" stroke="#17171A" stroke-opacity="0.05"/>
</g>
<defs>
<filter id="filter0_dd_7544_707" x="0" y="0" width="60" height="60" filterUnits="userSpaceOnUse" color-interpolation-filters="sRGB">
<feFlood flood-opacity="0" result="BackgroundImageFix"/>
<feColorMatrix in="SourceAlpha" type="matrix" values="0 0 0 0 0 0 0 0 0 0 0 0 0 0 0 0 0 0 127 0" result="hardAlpha"/>
<feMorphology radius="2" operator="erode" in="SourceAlpha" result="effect1_dropShadow_7544_707"/>
<feOffset dy="2"/>
<feGaussianBlur stdDeviation="2"/>
<feComposite in2="hardAlpha" operator="out"/>
<feColorMatrix type="matrix" values="0 0 0 0 0.152941 0 0 0 0 0.152941 0 0 0 0 0.160784 0 0 0 0.01 0"/>
<feBlend mode="normal" in2="BackgroundImageFix" result="effect1_dropShadow_7544_707"/>
<feColorMatrix in="SourceAlpha" type="matrix" values="0 0 0 0 0 0 0 0 0 0 0 0 0 0 0 0 0 0 127 0" result="hardAlpha"/>
<feMorphology radius="1" operator="erode" in="SourceAlpha" result="effect2_dropShadow_7544_707"/>
<feOffset dy="4"/>
<feGaussianBlur stdDeviation="3"/>
<feComposite in2="hardAlpha" operator="out"/>
<feColorMatrix type="matrix" values="0 0 0 0 0.152941 0 0 0 0 0.152941 0 0 0 0 0.160784 0 0 0 0.01 0"/>
<feBlend mode="normal" in2="effect1_dropShadow_7544_707" result="effect2_dropShadow_7544_707"/>
<feBlend mode="normal" in="SourceGraphic" in2="effect2_dropShadow_7544_707" result="shape"/>
</filter>
<clipPath id="clip0_7544_707">
<rect width="28" height="28" fill="white" transform="translate(16 12)"/>
</clipPath>
</defs>
</svg>
