<svg width="58" height="58" viewBox="0 0 58 58" fill="none" xmlns="http://www.w3.org/2000/svg">
<g filter="url(#filter0_dd_7625_455)">
<rect x="5.5" y="1.5" width="47" height="47" rx="23.5" stroke="#D4D4D8" shape-rendering="crispEdges"/>
<g clip-path="url(#clip0_7625_455)">
<path d="M45 25C45 16.1634 37.8366 9 29 9C20.1634 9 13 16.1634 13 25C13 33.8366 20.1634 41 29 41C37.8366 41 45 33.8366 45 25Z" fill="#F43F5E"/>
<path d="M22 20C22 19.4696 22.2107 18.9609 22.5858 18.5858C22.9609 18.2107 23.4696 18 24 18H26V30C26 30.5304 25.7893 31.0391 25.4142 31.4142C25.0391 31.7893 24.5304 32 24 32H22V20ZM32 20C32 19.4696 32.2107 18.9609 32.5858 18.5858C32.9609 18.2107 33.4696 18 34 18H36V30C36 30.5304 35.7893 31.0391 35.4142 31.4142C35.0391 31.7893 34.5304 32 34 32H32V20Z" fill="white"/>
<path d="M28.447 25.106C28.6131 24.7735 28.8686 24.4939 29.1848 24.2986C29.501 24.1032 29.8653 23.9998 30.237 24H34V26H28L28.447 25.106Z" fill="white"/>
</g>
</g>
<defs>
<filter id="filter0_dd_7625_455" x="0" y="0" width="58" height="58" filterUnits="userSpaceOnUse" color-interpolation-filters="sRGB">
<feFlood flood-opacity="0" result="BackgroundImageFix"/>
<feColorMatrix in="SourceAlpha" type="matrix" values="0 0 0 0 0 0 0 0 0 0 0 0 0 0 0 0 0 0 127 0" result="hardAlpha"/>
<feMorphology radius="2" operator="erode" in="SourceAlpha" result="effect1_dropShadow_7625_455"/>
<feOffset dy="2"/>
<feGaussianBlur stdDeviation="2"/>
<feComposite in2="hardAlpha" operator="out"/>
<feColorMatrix type="matrix" values="0 0 0 0 0.152941 0 0 0 0 0.152941 0 0 0 0 0.160784 0 0 0 0.01 0"/>
<feBlend mode="normal" in2="BackgroundImageFix" result="effect1_dropShadow_7625_455"/>
<feColorMatrix in="SourceAlpha" type="matrix" values="0 0 0 0 0 0 0 0 0 0 0 0 0 0 0 0 0 0 127 0" result="hardAlpha"/>
<feMorphology radius="1" operator="erode" in="SourceAlpha" result="effect2_dropShadow_7625_455"/>
<feOffset dy="4"/>
<feGaussianBlur stdDeviation="3"/>
<feComposite in2="hardAlpha" operator="out"/>
<feColorMatrix type="matrix" values="0 0 0 0 0.152941 0 0 0 0 0.152941 0 0 0 0 0.160784 0 0 0 0.01 0"/>
<feBlend mode="normal" in2="effect1_dropShadow_7625_455" result="effect2_dropShadow_7625_455"/>
<feBlend mode="normal" in="SourceGraphic" in2="effect2_dropShadow_7625_455" result="shape"/>
</filter>
<clipPath id="clip0_7625_455">
<rect width="32" height="32" fill="white" transform="translate(13 9)"/>
</clipPath>
</defs>
</svg>
