<svg width="20" height="20" viewBox="0 0 20 20" fill="none" xmlns="http://www.w3.org/2000/svg">
<path d="M9.75 0.75V3M16.114 3.386L14.523 4.977M18.75 9.75H16.5M16.114 16.114L14.523 14.523M9.75 16.5V18.75M4.977 14.523L3.386 16.114M3 9.75H0.75M4.977 4.977L3.386 3.386M13.5 9.75C13.5 10.7446 13.1049 11.6984 12.4017 12.4017C11.6984 13.1049 10.7446 13.5 9.75 13.5C8.75544 13.5 7.80161 13.1049 7.09835 12.4017C6.39509 11.6984 6 10.7446 6 9.75C6 8.75544 6.39509 7.80161 7.09835 7.09835C7.80161 6.39509 8.75544 6 9.75 6C10.7446 6 11.6984 6.39509 12.4017 7.09835C13.1049 7.80161 13.5 8.75544 13.5 9.75Z" stroke="#14B8A6" stroke-width="1.5" stroke-linecap="round" stroke-linejoin="round"/>
</svg>
