<svg width="20" height="20" viewBox="0 0 20 20" fill="none" xmlns="http://www.w3.org/2000/svg">
<path d="M18.0001 11.9V16.15C18.0001 17.244 17.2131 18.186 16.1281 18.33C14.0411 18.607 11.9121 18.75 9.75006 18.75C7.58806 18.75 5.45905 18.607 3.37206 18.33C2.28706 18.186 1.50006 17.244 1.50006 16.15V11.9M18.0001 11.9C18.2375 11.6936 18.4275 11.4383 18.557 11.1516C18.6864 10.8649 18.7523 10.5536 18.7501 10.239V6.456C18.7501 5.375 17.9821 4.441 16.9131 4.281C15.7804 4.11142 14.642 3.98234 13.5001 3.894M18.0001 11.9C17.8061 12.065 17.5801 12.195 17.3271 12.28C14.8833 13.0908 12.3248 13.5028 9.75006 13.5C7.10206 13.5 4.55506 13.071 2.17306 12.28C1.92631 12.1979 1.69778 12.0689 1.50006 11.9M1.50006 11.9C1.2626 11.6936 1.07262 11.4383 0.943154 11.1516C0.813692 10.8649 0.747818 10.5536 0.750055 10.239V6.456C0.750055 5.375 1.51806 4.441 2.58706 4.281C3.71975 4.11142 4.85814 3.98233 6.00006 3.894M13.5001 3.894V3C13.5001 2.40326 13.263 1.83097 12.841 1.40901C12.4191 0.987053 11.8468 0.75 11.2501 0.75H8.25006C7.65332 0.75 7.08102 0.987053 6.65907 1.40901C6.23711 1.83097 6.00006 2.40326 6.00006 3V3.894M13.5001 3.894C11.0038 3.70108 8.49633 3.70108 6.00006 3.894H13.5001ZM9.75006 10.5H9.75806V10.508H9.75006V10.5Z" fill="#F4F4F5"/>
<path d="M18.0001 11.9V16.15C18.0001 17.244 17.2131 18.186 16.1281 18.33C14.0411 18.607 11.9121 18.75 9.75006 18.75C7.58806 18.75 5.45906 18.607 3.37206 18.33C2.28706 18.186 1.50006 17.244 1.50006 16.15V11.9M18.0001 11.9C18.2375 11.6936 18.4275 11.4383 18.557 11.1516C18.6864 10.8649 18.7523 10.5536 18.7501 10.239V6.456C18.7501 5.375 17.9821 4.441 16.9131 4.281C15.7804 4.11142 14.642 3.98234 13.5001 3.894M18.0001 11.9C17.8061 12.065 17.5801 12.195 17.3271 12.28C14.8833 13.0908 12.3248 13.5028 9.75006 13.5C7.10206 13.5 4.55506 13.071 2.17306 12.28C1.92631 12.1979 1.69778 12.0689 1.50006 11.9M1.50006 11.9C1.2626 11.6936 1.07262 11.4383 0.943154 11.1516C0.813692 10.8649 0.747818 10.5536 0.750055 10.239V6.456C0.750055 5.375 1.51806 4.441 2.58706 4.281C3.71975 4.11142 4.85814 3.98233 6.00006 3.894M13.5001 3.894V3C13.5001 2.40326 13.263 1.83097 12.841 1.40901C12.4191 0.987053 11.8468 0.75 11.2501 0.75H8.25006C7.65332 0.75 7.08102 0.987053 6.65907 1.40901C6.23711 1.83097 6.00006 2.40326 6.00006 3V3.894M13.5001 3.894C11.0038 3.70108 8.49633 3.70108 6.00006 3.894M9.75006 10.5H9.75806V10.508H9.75006V10.5Z" stroke="#A1A1AA" stroke-width="1.5" stroke-linecap="round" stroke-linejoin="round"/>
</svg>
